<svg width="206" height="67" viewBox="0 0 206 67" fill="none" xmlns="http://www.w3.org/2000/svg">
<path fill-rule="evenodd" clip-rule="evenodd" d="M0 18.3245V36.6978L6.49687 40.4084C10.0704 42.4495 13.1328 44.0451 13.3031 43.9549C13.4735 43.8647 13.6125 39.6144 13.6125 34.5095C13.6125 29.4047 13.7144 25.2284 13.8394 25.2284C13.9639 25.2284 14.6136 25.5125 15.2831 25.8595L16.5 26.4902V36.2263V45.962L23.5302 56.261C27.3966 61.925 30.7395 66.6704 30.9585 66.806C31.2131 66.964 31.3182 58.211 31.2502 42.5305L31.1437 18.0077L23.5125 13.5328C19.3153 11.072 15.6028 8.94119 15.2625 8.7985C14.9222 8.65582 13.9941 8.13471 13.2 7.64089C12.0499 6.92581 7.87339 4.4919 0.309375 0.129451C0.139013 0.031432 0 8.21908 0 18.3245ZM61.0484 2.74204C58.4401 4.24995 53.4291 7.16404 49.9125 9.21746C42.7746 13.3855 40.9369 14.4464 37.2232 16.5432L34.6599 17.9907L34.6549 42.4954C34.6521 55.9731 34.7296 67 34.827 67C34.9829 67 40.932 58.4178 46.7994 49.7281C47.9152 48.0758 49.118 46.4616 49.4732 46.1411C49.8284 45.8201 53.5528 43.5732 57.75 41.1479C61.9472 38.7227 65.5244 36.601 65.6997 36.4335C65.875 36.2656 65.9678 32.574 65.906 28.2293L65.7937 20.3304L60.0187 23.7159C56.8425 25.5783 53.1762 27.7053 51.8719 28.4432L49.5 29.7848L49.5066 27.6102L49.5132 25.4352L57.7566 20.7324L66 16.0295V8.01477C66 3.60642 65.953 0 65.8952 0C65.8375 0 63.6566 1.23371 61.0484 2.74204Z" fill="#003C8C"/>
<path d="M80.1 29V8H84.99L96.57 21.98H94.26V8H100.08V29H95.19L83.61 15.02H85.92V29H80.1ZM112.52 29.27C110.6 29.27 108.92 28.91 107.48 28.19C106.06 27.45 104.95 26.45 104.15 25.19C103.37 23.91 102.98 22.46 102.98 20.84C102.98 19.22 103.36 17.78 104.12 16.52C104.9 15.24 105.97 14.25 107.33 13.55C108.69 12.83 110.22 12.47 111.92 12.47C113.52 12.47 114.98 12.8 116.3 13.46C117.62 14.1 118.67 15.05 119.45 16.31C120.23 17.57 120.62 19.1 120.62 20.9C120.62 21.1 120.61 21.33 120.59 21.59C120.57 21.85 120.55 22.09 120.53 22.31H107.66V19.31H117.5L115.34 20.15C115.36 19.41 115.22 18.77 114.92 18.23C114.64 17.69 114.24 17.27 113.72 16.97C113.22 16.67 112.63 16.52 111.95 16.52C111.27 16.52 110.67 16.67 110.15 16.97C109.65 17.27 109.26 17.7 108.98 18.26C108.7 18.8 108.56 19.44 108.56 20.18V21.05C108.56 21.85 108.72 22.54 109.04 23.12C109.38 23.7 109.86 24.15 110.48 24.47C111.1 24.77 111.84 24.92 112.7 24.92C113.5 24.92 114.18 24.81 114.74 24.59C115.32 24.35 115.89 23.99 116.45 23.51L119.45 26.63C118.67 27.49 117.71 28.15 116.57 28.61C115.43 29.05 114.08 29.27 112.52 29.27ZM132.739 29V25.97L132.349 25.22V19.64C132.349 18.74 132.069 18.05 131.509 17.57C130.969 17.07 130.099 16.82 128.899 16.82C128.119 16.82 127.329 16.95 126.529 17.21C125.729 17.45 125.049 17.79 124.489 18.23L122.569 14.36C123.489 13.76 124.589 13.3 125.869 12.98C127.169 12.64 128.459 12.47 129.739 12.47C132.379 12.47 134.419 13.08 135.859 14.3C137.319 15.5 138.049 17.39 138.049 19.97V29H132.739ZM127.939 29.27C126.639 29.27 125.539 29.05 124.639 28.61C123.739 28.17 123.049 27.57 122.569 26.81C122.109 26.05 121.879 25.2 121.879 24.26C121.879 23.26 122.129 22.4 122.629 21.68C123.149 20.94 123.939 20.38 124.999 20C126.059 19.6 127.429 19.4 129.109 19.4H132.949V22.37H129.889C128.969 22.37 128.319 22.52 127.939 22.82C127.579 23.12 127.399 23.52 127.399 24.02C127.399 24.52 127.589 24.92 127.969 25.22C128.349 25.52 128.869 25.67 129.529 25.67C130.149 25.67 130.709 25.52 131.209 25.22C131.729 24.9 132.109 24.42 132.349 23.78L133.129 25.88C132.829 27 132.239 27.85 131.359 28.43C130.499 28.99 129.359 29.27 127.939 29.27ZM141.646 29V12.74H147.076V17.48L146.266 16.13C146.746 14.91 147.526 14 148.606 13.4C149.686 12.78 150.996 12.47 152.536 12.47V17.6C152.276 17.56 152.046 17.54 151.846 17.54C151.666 17.52 151.466 17.51 151.246 17.51C150.086 17.51 149.146 17.83 148.426 18.47C147.706 19.09 147.346 20.11 147.346 21.53V29H141.646ZM85.62 47.21H95.31V51.8H85.62V47.21ZM86.04 59H80.1V38H96.57V42.59H86.04V59ZM106.886 59.27C105.106 59.27 103.526 58.91 102.146 58.19C100.766 57.47 99.6765 56.48 98.8765 55.22C98.0965 53.94 97.7065 52.48 97.7065 50.84C97.7065 49.2 98.0965 47.75 98.8765 46.49C99.6765 45.23 100.766 44.25 102.146 43.55C103.526 42.83 105.106 42.47 106.886 42.47C108.666 42.47 110.246 42.83 111.626 43.55C113.026 44.25 114.116 45.23 114.896 46.49C115.676 47.75 116.066 49.2 116.066 50.84C116.066 52.48 115.676 53.94 114.896 55.22C114.116 56.48 113.026 57.47 111.626 58.19C110.246 58.91 108.666 59.27 106.886 59.27ZM106.886 54.74C107.546 54.74 108.126 54.59 108.626 54.29C109.146 53.99 109.556 53.55 109.856 52.97C110.156 52.37 110.306 51.66 110.306 50.84C110.306 50.02 110.156 49.33 109.856 48.77C109.556 48.19 109.146 47.75 108.626 47.45C108.126 47.15 107.546 47 106.886 47C106.246 47 105.666 47.15 105.146 47.45C104.646 47.75 104.236 48.19 103.916 48.77C103.616 49.33 103.466 50.02 103.466 50.84C103.466 51.66 103.616 52.37 103.916 52.97C104.236 53.55 104.646 53.99 105.146 54.29C105.666 54.59 106.246 54.74 106.886 54.74ZM118.707 59V42.74H124.137V47.48L123.327 46.13C123.807 44.91 124.587 44 125.667 43.4C126.747 42.78 128.057 42.47 129.597 42.47V47.6C129.337 47.56 129.107 47.54 128.907 47.54C128.727 47.52 128.527 47.51 128.307 47.51C127.147 47.51 126.207 47.83 125.487 48.47C124.767 49.09 124.407 50.11 124.407 51.53V59H118.707ZM139.707 59.27C137.627 59.27 136.007 58.76 134.847 57.74C133.687 56.7 133.107 55.14 133.107 53.06V39.11H138.807V53C138.807 53.58 138.967 54.04 139.287 54.38C139.607 54.7 140.017 54.86 140.517 54.86C141.197 54.86 141.777 54.69 142.257 54.35L143.667 58.34C143.187 58.66 142.597 58.89 141.897 59.03C141.197 59.19 140.467 59.27 139.707 59.27ZM130.737 47.6V43.34H142.527V47.6H130.737ZM152.705 59.27C151.385 59.27 150.195 59.01 149.135 58.49C148.095 57.97 147.275 57.16 146.675 56.06C146.095 54.94 145.805 53.53 145.805 51.83V42.74H151.505V50.9C151.505 52.16 151.735 53.06 152.195 53.6C152.675 54.14 153.345 54.41 154.205 54.41C154.765 54.41 155.275 54.28 155.735 54.02C156.195 53.76 156.565 53.35 156.845 52.79C157.125 52.21 157.265 51.47 157.265 50.57V42.74H162.965V59H157.535V54.41L158.585 55.7C158.025 56.9 157.215 57.8 156.155 58.4C155.095 58.98 153.945 59.27 152.705 59.27ZM177.227 42.47C178.487 42.47 179.627 42.73 180.647 43.25C181.667 43.75 182.467 44.53 183.047 45.59C183.647 46.65 183.947 48.02 183.947 49.7V59H178.247V50.63C178.247 49.47 178.007 48.63 177.527 48.11C177.067 47.57 176.417 47.3 175.577 47.3C174.977 47.3 174.427 47.44 173.927 47.72C173.427 47.98 173.037 48.39 172.757 48.95C172.477 49.51 172.337 50.24 172.337 51.14V59H166.637V42.74H172.067V47.36L171.017 46.01C171.637 44.83 172.487 43.95 173.567 43.37C174.647 42.77 175.867 42.47 177.227 42.47ZM196.25 59.27C194.33 59.27 192.65 58.91 191.21 58.19C189.79 57.45 188.68 56.45 187.88 55.19C187.1 53.91 186.71 52.46 186.71 50.84C186.71 49.22 187.09 47.78 187.85 46.52C188.63 45.24 189.7 44.25 191.06 43.55C192.42 42.83 193.95 42.47 195.65 42.47C197.25 42.47 198.71 42.8 200.03 43.46C201.35 44.1 202.4 45.05 203.18 46.31C203.96 47.57 204.35 49.1 204.35 50.9C204.35 51.1 204.34 51.33 204.32 51.59C204.3 51.85 204.28 52.09 204.26 52.31H191.39V49.31H201.23L199.07 50.15C199.09 49.41 198.95 48.77 198.65 48.23C198.37 47.69 197.97 47.27 197.45 46.97C196.95 46.67 196.36 46.52 195.68 46.52C195 46.52 194.4 46.67 193.88 46.97C193.38 47.27 192.99 47.7 192.71 48.26C192.43 48.8 192.29 49.44 192.29 50.18V51.05C192.29 51.85 192.45 52.54 192.77 53.12C193.11 53.7 193.59 54.15 194.21 54.47C194.83 54.77 195.57 54.92 196.43 54.92C197.23 54.92 197.91 54.81 198.47 54.59C199.05 54.35 199.62 53.99 200.18 53.51L203.18 56.63C202.4 57.49 201.44 58.15 200.3 58.61C199.16 59.05 197.81 59.27 196.25 59.27Z" fill="#003C8C"/>
</svg>
