<svg width="30" height="30" viewBox="0 0 30 30" fill="none" xmlns="http://www.w3.org/2000/svg">
<g id="octicon:x-16">
<path id="Vector" d="M6.97498 6.97502C7.23866 6.71167 7.59608 6.56375 7.96873 6.56375C8.34139 6.56375 8.69881 6.71167 8.96248 6.97502L15 13.0125L21.0375 6.97502C21.2094 6.78991 21.428 6.65459 21.6703 6.58331C21.9127 6.51203 22.1698 6.50744 22.4145 6.57002C22.6592 6.63259 22.8826 6.76002 23.0609 6.93887C23.2393 7.11772 23.3662 7.34137 23.4281 7.58627C23.4908 7.83072 23.4864 8.08754 23.4155 8.32973C23.3445 8.57191 23.2096 8.7905 23.025 8.96252L16.9875 15L23.025 21.0375C23.2101 21.2094 23.3454 21.428 23.4167 21.6704C23.488 21.9127 23.4926 22.1698 23.43 22.4145C23.3674 22.6593 23.24 22.8826 23.0611 23.061C22.8823 23.2394 22.6586 23.3662 22.4137 23.4281C22.1693 23.4908 21.9125 23.4864 21.6703 23.4155C21.4281 23.3445 21.2095 23.2097 21.0375 23.025L15 16.9875L8.96248 23.025C8.69574 23.2733 8.34315 23.4085 7.9788 23.4022C7.61446 23.3959 7.26674 23.2486 7.00873 22.9913C6.7514 22.7333 6.60411 22.3855 6.59782 22.0212C6.59152 21.6569 6.72672 21.3043 6.97498 21.0375L13.0125 15L6.97498 8.96252C6.71164 8.69884 6.56372 8.34142 6.56372 7.96877C6.56372 7.59611 6.71164 7.23869 6.97498 6.97502Z" fill="white"/>
</g>
</svg>
