<svg width="99" height="99" viewBox="0 0 99 99" fill="none" xmlns="http://www.w3.org/2000/svg">
<g id="flat-color-icons:cd-logo">
<path id="Vector" d="M36.7414 37.125H41.6625C42.6938 37.125 43.3125 37.95 43.3125 38.775V72.6C43.3125 73.4229 42.4875 74.25 41.6625 74.25H36.7455C35.9205 74.25 35.0955 73.425 35.0955 72.6V38.775C34.8893 37.7437 35.7101 37.125 36.7414 37.125ZM29.2875 22.6875H22.4812C21.45 22.6875 20.625 23.5187 20.625 24.3519V35.0625H4.5375C3.3 35.0625 2.0625 36.3103 2.0625 37.5581V71.7544C2.0625 73.0043 3.3 74.25 4.5375 74.25H29.2875C30.1125 74.25 30.9375 73.6209 30.9375 72.5814V24.3519C30.9375 23.5187 30.3188 22.6875 29.2875 22.6875ZM20.625 64.5212C20.625 65.3421 19.8 66.1712 18.975 66.1712H14.025C13.2 66.1712 12.375 65.3483 12.375 64.5212V44.9625C12.375 44.1375 12.9938 43.3125 14.025 43.3125H18.975C20.0063 43.3125 20.625 44.1375 20.625 44.9625V64.5212ZM68.475 51.5625C69.5062 51.5625 70.125 52.8 70.125 53.2125V72.6C70.125 73.4229 69.2546 74.25 68.475 74.25H49.0875C48.2109 74.25 47.4375 73.425 47.4375 72.6V67.6789C47.4375 66.6476 48.2625 66.0309 49.0875 66.0309L61.875 66V59.8125H49.0875C48.4048 59.8125 47.4375 58.9875 47.4375 58.1604V38.775C47.4375 37.7437 48.2625 37.125 49.0875 37.125H68.475C69.2979 37.125 70.125 37.95 70.125 38.775V43.725C70.125 44.3438 69.5764 45.375 68.475 45.375H55.6875V51.5625H68.475ZM99 57.75V72.6C99 73.4229 98.175 74.25 97.3479 74.25H75.9C75.4875 74.25 74.25 73.425 74.25 72.6V38.775C74.25 37.7437 75.141 37.125 75.9639 37.125H97.35C97.35 37.125 99 37.125 99 38.775V51.5625H90.75V47.025C90.75 47.025 90.9563 45.375 89.1 45.375H84.15C83.1188 45.375 82.5 46.2 82.5 47.025V64.35C82.5 65.1729 83.5312 66 84.15 66H89.1C89.9229 66 90.75 65.175 90.75 64.35V57.75H99Z" fill="#003C8C"/>
<path id="Vector_2" d="M94.4604 32.9587H96.7313V26.5671H99V24.7087H92.3979V26.5671H94.4604V32.9587ZM90.7789 29.8567H88.4214V30.0527C88.4214 30.8406 88.2234 31.2345 87.2417 31.2345C86.262 31.2345 86.0661 30.8406 86.0661 29.6629V28.2851C86.0661 27.1054 86.0661 26.7135 87.2417 26.7135C88.0275 26.7135 88.4214 26.9094 88.4214 27.6973V27.8932H90.5809V27.6973C90.5809 25.5379 89.7951 24.75 87.4397 24.75H86.8478C84.4944 24.75 83.7066 25.5379 83.7066 28.0871V29.6629C83.7066 32.0182 84.4924 33 86.8478 33H87.6377C89.7971 33 90.5829 32.0162 90.5829 30.0506V29.8547L90.7789 29.8567ZM60.8768 24.75L59.2288 30.7312L57.3705 24.75H54.0726V33H56.3393V26.8125L57.9872 33H60.2601L62.1122 27.0187V33H64.1747V24.75H60.8768ZM79.8456 24.75H76.1372L73.6643 33H76.1372L76.5476 31.5562H79.4372L79.8476 33H82.3206L79.8456 24.75ZM78.1976 29.9062H77.3726L78.1976 26.4L79.0185 29.9062H78.1976ZM69.96 24.75H66.0413V33H68.3141V30.7312H69.9621C72.2349 30.7312 73.0558 29.9062 73.0558 27.8437V27.225C73.0538 25.3687 72.2287 24.75 69.96 24.75ZM70.785 28.05C70.785 28.875 70.5788 29.0812 69.96 29.0812H68.3121V26.6062H69.7558C70.5808 26.6062 70.7871 26.8125 70.7871 27.4312L70.785 28.05ZM48.6626 24.75H47.4829C45.1254 24.75 44.3417 25.5379 44.3417 28.0871V29.6587C44.3417 32.0182 45.1275 33 47.4829 33H48.6626C51.0201 33 51.8038 32.0162 51.8038 29.6587V28.0871C51.8038 25.5379 51.0201 24.75 48.6626 24.75ZM49.4484 29.2669C49.4484 30.4446 49.4484 30.8406 48.2708 30.8406H47.8789C46.7012 30.8406 46.7012 30.4466 46.7012 29.2669V28.0871C46.7012 26.9115 46.7012 26.5155 47.8789 26.5155H48.2708C49.4484 26.5155 49.4484 26.9094 49.4484 28.0871V29.2669ZM42.1204 29.8588H39.7609V30.0547C39.7609 30.8426 39.5649 31.2324 38.5832 31.2324C37.6014 31.2324 37.4055 30.8426 37.4055 29.6608V28.2872C37.4055 27.1054 37.4055 26.7156 38.5832 26.7156C39.369 26.7156 39.7609 26.9115 39.7609 27.6952V27.8932H41.9224V27.6952C41.9224 25.5358 41.1366 24.75 38.7812 24.75H38.1913C35.8339 24.75 35.0481 25.5358 35.0481 28.0871V29.6608C35.0481 32.0182 35.8339 33 38.1913 33H38.9771C41.1386 33 41.9244 32.0162 41.9244 30.0527V29.8567H42.1204V29.8588Z" fill="black"/>
</g>
</svg>
