<svg width="29" height="29" viewBox="0 0 29 29" fill="none" xmlns="http://www.w3.org/2000/svg">
<g id="mdi:gift">
<path id="Vector" d="M10.9475 2.33208C8.66379 2.32 6.44046 4.51916 7.45546 7.25H3.62504C2.9841 7.25 2.36941 7.50461 1.9162 7.95782C1.46299 8.41104 1.20837 9.02572 1.20837 9.66666V12.0833C1.20837 12.4038 1.33568 12.7111 1.56229 12.9378C1.78889 13.1644 2.09624 13.2917 2.41671 13.2917H13.2917V9.66666H15.7084V13.2917H26.5834C26.9038 13.2917 27.2112 13.1644 27.4378 12.9378C27.6644 12.7111 27.7917 12.4038 27.7917 12.0833V9.66666C27.7917 9.02572 27.5371 8.41104 27.0839 7.95782C26.6307 7.50461 26.016 7.25 25.375 7.25H21.5446C22.9584 3.29875 17.6417 0.507498 15.1888 3.915L14.5 4.83333L13.8113 3.89083C13.05 2.81541 11.9988 2.34416 10.9475 2.33208ZM10.875 4.83333C11.9505 4.83333 12.4942 6.13833 11.733 6.89958C10.9717 7.66083 9.66671 7.11708 9.66671 6.04166C9.66671 5.72119 9.79401 5.41385 10.0206 5.18724C10.2472 4.96064 10.5546 4.83333 10.875 4.83333ZM18.125 4.83333C19.2005 4.83333 19.7442 6.13833 18.983 6.89958C18.2217 7.66083 16.9167 7.11708 16.9167 6.04166C16.9167 5.72119 17.044 5.41385 17.2706 5.18724C17.4972 4.96064 17.8046 4.83333 18.125 4.83333ZM2.41671 14.5V24.1667C2.41671 24.8076 2.67132 25.4223 3.12453 25.8755C3.57775 26.3287 4.19243 26.5833 4.83337 26.5833H24.1667C24.8076 26.5833 25.4223 26.3287 25.8755 25.8755C26.3288 25.4223 26.5834 24.8076 26.5834 24.1667V14.5H15.7084V24.1667H13.2917V14.5H2.41671Z" fill="black"/>
</g>
</svg>
