<svg width="66" height="67" viewBox="0 0 66 67" fill="none" xmlns="http://www.w3.org/2000/svg">
<path id="Vector" fill-rule="evenodd" clip-rule="evenodd" d="M0 18.3245V36.6978L6.49687 40.4084C10.0704 42.4495 13.1328 44.0451 13.3031 43.9549C13.4735 43.8647 13.6125 39.6144 13.6125 34.5095C13.6125 29.4047 13.7144 25.2284 13.8394 25.2284C13.9639 25.2284 14.6136 25.5125 15.2831 25.8595L16.5 26.4902V36.2263V45.962L23.5302 56.261C27.3966 61.925 30.7395 66.6704 30.9585 66.806C31.2131 66.964 31.3182 58.211 31.2502 42.5305L31.1437 18.0077L23.5125 13.5328C19.3153 11.072 15.6028 8.94119 15.2625 8.7985C14.9222 8.65582 13.9941 8.13471 13.2 7.64089C12.0499 6.92581 7.87339 4.4919 0.309375 0.129451C0.139013 0.031432 0 8.21908 0 18.3245ZM61.0484 2.74204C58.4401 4.24995 53.4291 7.16404 49.9125 9.21746C42.7746 13.3855 40.9369 14.4464 37.2232 16.5432L34.6599 17.9907L34.6549 42.4954C34.6521 55.9731 34.7296 67 34.827 67C34.9829 67 40.932 58.4178 46.7994 49.7281C47.9152 48.0758 49.118 46.4616 49.4732 46.1411C49.8284 45.8201 53.5528 43.5732 57.75 41.1479C61.9472 38.7227 65.5244 36.601 65.6997 36.4335C65.875 36.2656 65.9678 32.574 65.906 28.2293L65.7937 20.3304L60.0187 23.7159C56.8425 25.5783 53.1762 27.7053 51.8719 28.4432L49.5 29.7848L49.5066 27.6102L49.5132 25.4352L57.7566 20.7324L66 16.0295V8.01477C66 3.60642 65.953 0 65.8952 0C65.8375 0 63.6566 1.23371 61.0484 2.74204Z" fill="#003C8C"/>
</svg>
